<?xml version="1.0" standalone="no"?>
<!DOCTYPE svg PUBLIC "-//W3C//DTD SVG 20010904//EN"
 "http://www.w3.org/TR/2001/REC-SVG-20010904/DTD/svg10.dtd">
<svg version="1.0" xmlns="http://www.w3.org/2000/svg"
 width="748.000000pt" height="777.000000pt" viewBox="0 0 748.000000 777.000000"
 preserveAspectRatio="xMidYMid meet">

<g transform="translate(0.000000,777.000000) scale(0.100000,-0.100000)"
fill="#000000" stroke="none">
<path d="M3695 7469 c-44 -4 -127 -13 -185 -18 -147 -15 -394 -56 -420 -70 -9
-5 -36 -12 -60 -15 -25 -4 -56 -11 -70 -16 -14 -5 -59 -18 -100 -30 -41 -12
-84 -25 -95 -30 -11 -4 -49 -18 -85 -31 -90 -31 -359 -146 -415 -176 -16 -9
-37 -20 -45 -24 -42 -21 -249 -146 -276 -166 -17 -13 -34 -23 -38 -23 -4 0
-18 -8 -31 -17 -12 -10 -33 -25 -45 -33 -214 -147 -580 -486 -721 -669 -35
-46 -74 -95 -86 -109 -13 -14 -23 -28 -23 -31 0 -3 -10 -17 -23 -31 -20 -22
-105 -146 -132 -192 -5 -9 -29 -48 -52 -87 -24 -38 -43 -74 -43 -79 0 -6 -4
-12 -8 -14 -10 -3 -166 -319 -177 -358 -4 -14 -11 -29 -15 -35 -12 -15 -93
-247 -123 -355 -77 -268 -103 -422 -134 -770 -20 -237 0 -596 52 -890 27 -158
31 -173 82 -350 9 -30 19 -64 24 -75 4 -11 11 -31 14 -45 10 -36 64 -190 80
-225 8 -16 24 -52 36 -80 165 -376 341 -652 615 -965 210 -240 518 -504 754
-645 36 -21 67 -41 70 -44 3 -3 16 -12 29 -19 13 -8 40 -23 60 -34 97 -55 194
-108 197 -108 2 0 32 -13 66 -29 92 -43 205 -91 213 -91 4 0 21 -7 38 -15 30
-13 145 -52 262 -88 350 -108 796 -159 1210 -137 726 38 1419 293 2005 739
441 336 817 795 1061 1296 33 66 59 126 59 133 0 7 -30 27 -67 43 -38 17 -97
44 -133 60 -36 17 -92 43 -125 59 -33 15 -103 48 -155 73 -165 79 -250 117
-260 117 -6 0 -10 5 -10 10 0 6 -5 10 -11 10 -11 0 -60 21 -174 75 -38 18
-113 53 -165 78 -52 24 -120 56 -151 70 -30 14 -96 44 -145 67 -95 45 -151 71
-254 118 -36 17 -112 53 -170 80 -112 53 -195 92 -302 140 -71 33 -211 98
-293 137 -27 13 -88 42 -135 63 -162 75 -225 105 -327 153 -56 27 -106 49
-110 49 -4 1 -21 12 -38 25 l-29 24 44 19 c47 21 135 61 285 132 50 23 146 68
215 100 69 32 178 83 243 114 65 31 120 56 122 56 2 0 65 30 142 66 76 36 188
89 248 116 61 28 180 83 265 123 85 40 196 92 245 115 50 23 176 82 280 130
105 48 228 106 275 128 95 45 493 230 613 285 47 22 77 42 77 51 0 22 -166
344 -234 453 -98 159 -277 398 -376 504 -182 193 -419 410 -546 499 -223 156
-383 254 -544 332 -167 82 -383 171 -490 203 -30 9 -64 21 -75 26 -20 9 -67
21 -165 43 -30 7 -62 15 -70 19 -8 4 -44 12 -80 17 -431 71 -722 92 -945 69z
m640 -233 c535 -73 1057 -275 1490 -574 221 -153 489 -393 654 -587 134 -158
218 -274 357 -496 12 -20 38 -68 58 -107 l36 -72 -52 -24 c-49 -21 -376 -174
-578 -268 -47 -22 -143 -67 -215 -101 -71 -33 -186 -86 -254 -118 -67 -33
-124 -59 -126 -59 -2 0 -84 -38 -182 -84 -238 -112 -749 -350 -1353 -631 -74
-34 -184 -86 -245 -115 -60 -28 -146 -68 -190 -88 -44 -19 -84 -39 -89 -43 -8
-7 58 -41 284 -144 63 -29 187 -86 275 -128 265 -124 331 -155 540 -252 249
-116 453 -211 880 -410 127 -59 354 -165 505 -235 151 -70 316 -147 365 -171
50 -23 167 -77 260 -120 137 -63 169 -82 167 -96 -5 -23 -109 -205 -179 -311
-139 -211 -270 -367 -480 -573 -463 -453 -1049 -764 -1688 -895 -280 -58 -601
-82 -851 -65 -373 26 -606 71 -924 178 -1059 357 -1897 1249 -2189 2333 -139
513 -153 1082 -41 1598 221 1012 881 1862 1808 2326 397 199 772 304 1247 350
96 9 606 -3 710 -18z"/>
<path d="M3629 6283 c-11 -27 -32 -72 -45 -101 l-24 -53 126 -60 c104 -50 125
-63 119 -77 -40 -94 -54 -231 -35 -342 35 -214 168 -390 363 -481 192 -89 396
-82 592 19 88 46 198 153 247 242 34 62 96 236 86 245 -4 4 -86 43 -558 262
-113 53 -270 126 -350 163 -431 201 -493 230 -496 230 -2 0 -13 -21 -25 -47z
m493 -417 c51 -24 217 -101 368 -171 151 -70 279 -131 284 -135 12 -12 -27
-71 -80 -120 -25 -23 -75 -56 -112 -73 -62 -30 -75 -32 -173 -32 -101 0 -108
1 -181 38 -159 78 -262 253 -245 416 7 63 25 121 37 121 5 0 51 -20 102 -44z"/>
</g>
</svg>
